<svg width="200" height="46" viewBox="0 0 200 46" fill="none" xmlns="http://www.w3.org/2000/svg">
  <path
    d="M58.2624 20.592V16.8768H75.1392C76.3488 16.8768 77.3568 16.9632 78.192 17.136C79.0272 17.3088 79.7184 17.5968 80.2368 17.9712C80.7552 18.3456 81.1296 18.8352 81.36 19.44C81.5904 20.0448 81.7056 20.7648 81.7056 21.6V23.0976C81.7056 24.2784 81.504 25.1136 81.072 25.632C80.64 26.1504 80.1216 26.496 79.488 26.6688C79.8336 26.7552 80.1792 26.8992 80.4672 27.072C80.784 27.2448 81.0432 27.4752 81.2736 27.8208C81.504 28.1376 81.6768 28.5408 81.792 29.0304C81.9072 29.52 81.9648 30.1248 81.9648 30.8448V32.4576C81.9648 33.264 81.8496 33.9552 81.6192 34.5024C81.3888 35.0784 81.0144 35.5392 80.496 35.9136C79.9776 36.288 79.3152 36.5472 78.48 36.72C77.6448 36.8928 76.6656 36.9792 75.4848 36.9792H58.032V33.264H75.3696C76.2048 33.264 76.8096 33.1488 77.184 32.9472C77.5584 32.7456 77.7312 32.3136 77.7312 31.7088V30.528C77.7312 29.6928 77.5584 29.1744 77.2416 28.8864C76.896 28.6272 76.32 28.4832 75.5136 28.4832H58.1184V25.1136H75.3696C76.1472 25.1136 76.6944 24.9984 76.9824 24.7392C77.2704 24.48 77.4144 24.048 77.4144 23.3856V22.1472C77.4144 21.5424 77.2416 21.1392 76.896 20.9376C76.5504 20.736 75.888 20.6208 74.9376 20.6208H58.2624V20.592Z"
    fill="white"/>
  <path
    d="M85.0464 36.9216V16.8768H100.915C102.413 16.8768 103.651 16.992 104.63 17.2512C105.61 17.5104 106.416 17.8848 106.992 18.432C107.568 18.9792 108 19.6704 108.23 20.5632C108.49 21.456 108.605 22.5216 108.605 23.76V30.0384C108.605 31.3056 108.49 32.4 108.23 33.264C107.971 34.128 107.568 34.848 106.992 35.3952C106.416 35.9424 105.61 36.3168 104.63 36.576C103.651 36.8352 102.413 36.9504 100.915 36.9504H85.0464V36.9216ZM104.141 23.9616C104.141 23.3568 104.083 22.8384 103.968 22.4064C103.853 21.9744 103.68 21.6576 103.421 21.3984C103.162 21.1392 102.816 20.9664 102.384 20.88C101.952 20.7648 101.405 20.7072 100.742 20.7072H89.5104V33.0912H100.742C101.347 33.0912 101.866 33.0336 102.298 32.9472C102.73 32.8608 103.075 32.688 103.363 32.4288C103.651 32.1696 103.853 31.8528 103.968 31.4496C104.083 31.0464 104.17 30.528 104.17 29.8944V23.9616H104.141Z"
    fill="white"/>
  <path
    d="M123.725 19.8432C125.222 19.8432 126.461 19.9584 127.44 20.2176C128.419 20.4768 129.197 20.8512 129.802 21.3984C130.378 21.9456 130.81 22.6368 131.04 23.5296C131.299 24.4224 131.414 25.488 131.414 26.7552V28.9152C131.414 30.1824 131.299 31.2768 131.04 32.1408C130.781 33.0048 130.378 33.7248 129.802 34.272C129.226 34.8192 128.419 35.1936 127.44 35.4528C126.461 35.712 125.222 35.8272 123.725 35.8272H114.854V40.5792H110.477V26.784C110.477 25.5168 110.592 24.4224 110.851 23.5584C111.11 22.6656 111.514 21.9744 112.09 21.4272C112.666 20.88 113.472 20.5056 114.451 20.2464C115.43 19.9872 116.669 19.872 118.166 19.872H123.725V19.8432ZM127.008 26.8704C127.008 26.1504 126.95 25.6032 126.835 25.1712C126.72 24.7392 126.518 24.3936 126.23 24.1632C125.942 23.9328 125.539 23.76 125.05 23.7024C124.56 23.616 123.926 23.5872 123.149 23.5872H118.253C117.562 23.5872 116.986 23.6448 116.554 23.7312C116.093 23.8176 115.747 23.9904 115.488 24.2496C115.229 24.5088 115.056 24.8256 114.97 25.2576C114.883 25.6896 114.826 26.208 114.826 26.8704V32.0544H123.178C123.955 32.0544 124.56 32.0256 125.05 31.9392C125.539 31.8816 125.942 31.7088 126.23 31.4784C126.518 31.248 126.72 30.9024 126.835 30.4704C126.95 30.0384 127.008 29.4624 127.008 28.7424V26.8704Z"
    fill="white"/>
  <path
    d="M139.853 35.7984C138.701 35.7984 137.75 35.712 137.002 35.5104C136.253 35.3088 135.677 35.0208 135.216 34.6752C134.784 34.3008 134.467 33.8688 134.294 33.3504C134.122 32.832 134.035 32.256 134.035 31.5936V30.096C134.035 29.4336 134.122 28.8288 134.294 28.3104C134.467 27.792 134.755 27.36 135.158 26.9856C135.562 26.6112 136.138 26.352 136.858 26.1504C137.578 25.9776 138.47 25.8624 139.565 25.8624H151.344V25.5168C151.344 24.5088 151.142 23.8176 150.739 23.472C150.336 23.1264 149.645 22.9536 148.637 22.9536H134.438V19.8432H148.637C149.904 19.8432 150.998 19.9584 151.891 20.1888C152.784 20.4192 153.504 20.7936 154.08 21.2544C154.656 21.744 155.059 22.3488 155.318 23.0688C155.578 23.8176 155.722 24.6816 155.722 25.6896V29.5776C155.722 30.7296 155.606 31.7088 155.376 32.4864C155.146 33.264 154.771 33.8976 154.195 34.3872C153.648 34.8768 152.899 35.2224 151.949 35.424C151.027 35.6256 149.846 35.7408 148.435 35.7408H139.853V35.7984ZM151.344 28.5696H140.026C139.507 28.5696 139.104 28.6848 138.816 28.9152C138.528 29.1456 138.384 29.5776 138.384 30.1824V31.2768C138.384 31.8528 138.528 32.2272 138.845 32.4576C139.162 32.6592 139.594 32.7744 140.17 32.7744H148.406C148.925 32.7744 149.357 32.7456 149.731 32.6592C150.106 32.5728 150.394 32.4288 150.653 32.2272C150.883 32.0256 151.056 31.7376 151.171 31.3632C151.286 30.9888 151.344 30.4992 151.344 29.9232V28.5696Z"
    fill="white"/>
  <path
    d="M177.782 31.5648C177.782 32.3424 177.725 33.0048 177.581 33.552C177.437 34.0992 177.178 34.5312 176.774 34.848C176.371 35.1936 175.824 35.424 175.133 35.568C174.442 35.712 173.52 35.7984 172.426 35.7984H158.717V32.3424H171.85C172.426 32.3424 172.858 32.256 173.088 32.0544C173.318 31.8528 173.434 31.4784 173.434 30.9312V30.4128C173.434 29.8368 173.318 29.4624 173.088 29.3184C172.858 29.1744 172.483 29.088 171.965 29.088H163.037C162.144 29.088 161.395 29.0016 160.848 28.8288C160.301 28.656 159.84 28.3968 159.552 28.0224C159.235 27.6768 159.034 27.2448 158.918 26.7264C158.803 26.208 158.746 25.6032 158.746 24.8832V23.6736C158.746 22.9824 158.832 22.4064 158.976 21.9168C159.12 21.4272 159.35 21.024 159.696 20.736C160.042 20.4192 160.474 20.2176 161.05 20.0736C161.626 19.9296 162.346 19.872 163.21 19.872H177.35V23.184H164.246C163.814 23.184 163.498 23.2704 163.325 23.4144C163.152 23.5584 163.037 23.8464 163.037 24.2784V25.0272C163.037 25.488 163.123 25.776 163.296 25.9488C163.469 26.0928 163.757 26.1792 164.16 26.1792H172.8C173.808 26.1792 174.643 26.2656 175.306 26.4384C175.939 26.6112 176.458 26.8704 176.832 27.2448C177.206 27.6192 177.466 28.08 177.61 28.656C177.754 29.232 177.811 29.952 177.811 30.7872V31.5648H177.782Z"
    fill="white"/>
  <path
    d="M199.469 31.5648C199.469 32.3424 199.411 33.0048 199.267 33.552C199.123 34.0992 198.864 34.5312 198.461 34.848C198.058 35.1936 197.51 35.424 196.819 35.568C196.128 35.712 195.206 35.7984 194.112 35.7984H180.374V32.3424H193.507C194.083 32.3424 194.515 32.256 194.746 32.0544C194.976 31.8528 195.091 31.4784 195.091 30.9312V30.4128C195.091 29.8368 194.976 29.4624 194.746 29.3184C194.515 29.1744 194.141 29.088 193.622 29.088H184.694C183.802 29.088 183.053 29.0016 182.506 28.8288C181.958 28.656 181.498 28.3968 181.21 28.0224C180.893 27.6768 180.691 27.2448 180.576 26.7264C180.461 26.208 180.403 25.6032 180.403 24.8832V23.6736C180.403 22.9824 180.49 22.4064 180.634 21.9168C180.778 21.4272 181.008 21.024 181.354 20.736C181.699 20.4192 182.131 20.2176 182.707 20.0736C183.283 19.9296 184.003 19.872 184.867 19.872H199.296V23.184H185.933C185.501 23.184 185.184 23.2704 185.011 23.4144C184.838 23.5584 184.723 23.8464 184.723 24.2784V25.0272C184.723 25.488 184.81 25.776 184.982 25.9488C185.155 26.0928 185.443 26.1792 185.846 26.1792H194.486C195.494 26.1792 196.33 26.2656 196.992 26.4384C197.626 26.6112 198.144 26.8704 198.518 27.2448C198.893 27.6192 199.152 28.08 199.296 28.656C199.44 29.232 199.498 29.952 199.498 30.7872V31.5648H199.469Z"
    fill="white"/>
  <path d="M25.056 15.9552L0.0863953 6.94079V0L25.056 9.0144V15.9552Z" fill="url(#paint0_linear_302_8)"/>
  <path d="M24.9408 29.6928L0 20.6784V13.7376L24.9408 22.752V29.6928Z" fill="url(#paint1_linear_302_8)"/>
  <path d="M24.9408 43.6032L0 34.5888V27.6768L24.9408 36.6624V43.6032Z" fill="url(#paint2_linear_302_8)"/>
  <path d="M49.8816 45.6768L50.0544 11.088L25.1136 2.07359V9.0144L43.2288 15.552V36.3456L24.912 29.7216V36.6624L49.8816 45.6768Z" fill="#0B828C"/>
  <defs>
    <linearGradient id="paint0_linear_302_8" x1="28.8971" y1="7.97763" x2="7.55089" y2="7.97763" gradientUnits="userSpaceOnUse">
      <stop stop-color="#0B828C"/>
      <stop offset="1" stop-color="#00EB81"/>
    </linearGradient>
    <linearGradient id="paint1_linear_302_8" x1="28.8971" y1="21.7183" x2="7.5509" y2="21.7183" gradientUnits="userSpaceOnUse">
      <stop stop-color="#0B828C"/>
      <stop offset="1" stop-color="#00EB81"/>
    </linearGradient>
    <linearGradient id="paint2_linear_302_8" x1="28.8971" y1="35.6369" x2="7.5509" y2="35.6369" gradientUnits="userSpaceOnUse">
      <stop stop-color="#0B828C"/>
      <stop offset="1" stop-color="#00EB81"/>
    </linearGradient>
  </defs>
</svg>
